<svg xmlns="http://www.w3.org/2000/svg" xmlns:xlink="http://www.w3.org/1999/xlink" width="500" zoomAndPan="magnify" viewBox="0 0 375 374.999991" height="500" preserveAspectRatio="xMidYMid meet" version="1.0"><defs><g/><clipPath id="856d16b8bb"><path d="M 178.1875 126.179688 L 293.8125 126.179688 L 293.8125 243.148438 L 178.1875 243.148438 Z M 178.1875 126.179688 " clip-rule="nonzero"/></clipPath><clipPath id="4b0c2d840f"><path d="M 81.175781 120.929688 L 198.796875 120.929688 L 198.796875 243.148438 L 81.175781 243.148438 Z M 81.175781 120.929688 " clip-rule="nonzero"/></clipPath></defs><path fill="#004aad" d="M 177.871094 227.710938 L 177.808594 227.765625 L 177.902344 227.535156 Z M 177.871094 227.710938 " fill-opacity="1" fill-rule="evenodd"/><g clip-path="url(#856d16b8bb)"><path fill="#ff3131" d="M 195.035156 139.761719 L 225.128906 139.761719 C 229.078125 133.195312 234.492188 128.625 241.09375 126.953125 C 260.480469 122.039062 282.769531 143.976562 290.867188 175.9375 C 298.960938 207.898438 289.808594 237.800781 270.421875 242.710938 C 253.585938 246.976562 234.570312 230.996094 224.550781 205.789062 L 220.902344 205.789062 C 219.636719 211.476562 212.933594 215.816406 204.859375 215.816406 C 201.007812 215.816406 197.46875 214.832031 194.683594 213.179688 L 178.203125 227.425781 L 214.679688 160.023438 L 188.679688 165.292969 L 195.035156 139.761719 " fill-opacity="1" fill-rule="evenodd"/></g><g clip-path="url(#4b0c2d840f)"><path fill="#004aad" d="M 149.863281 139.761719 L 169.019531 139.761719 L 198.710938 120.929688 L 163.066406 192.117188 L 189.0625 184.351562 C 185.945312 195.976562 183.472656 205.289062 181.648438 212.292969 C 178.707031 214.46875 174.632812 215.816406 170.128906 215.816406 C 162.054688 215.816406 155.355469 211.476562 154.085938 205.789062 L 150.4375 205.789062 C 140.421875 230.996094 121.402344 246.976562 104.570312 242.710938 C 85.183594 237.800781 76.027344 207.898438 84.125 175.9375 C 92.222656 143.976562 114.507812 122.039062 133.894531 126.953125 C 140.496094 128.625 145.910156 133.195312 149.863281 139.761719 " fill-opacity="1" fill-rule="evenodd"/></g><path fill="#000000" d="M 119.089844 161.882812 C 122.71875 161.882812 125.683594 164.847656 125.683594 168.476562 L 125.683594 177.210938 L 134.417969 177.210938 C 138.042969 177.210938 141.011719 180.175781 141.011719 183.800781 C 141.011719 187.425781 138.042969 190.394531 134.417969 190.394531 L 125.683594 190.394531 L 125.683594 199.128906 C 125.683594 202.753906 122.71875 205.722656 119.089844 205.722656 C 115.464844 205.722656 112.5 202.753906 112.5 199.128906 L 112.5 190.394531 L 103.765625 190.394531 C 100.136719 190.394531 97.171875 187.425781 97.171875 183.800781 C 97.171875 180.175781 100.136719 177.210938 103.765625 177.210938 L 112.5 177.210938 L 112.5 168.476562 C 112.5 164.847656 115.464844 161.882812 119.089844 161.882812 " fill-opacity="1" fill-rule="evenodd"/><path fill="#000000" d="M 248.609375 193.304688 L 248.609375 195.6875 C 248.546875 195.300781 248.515625 194.902344 248.515625 194.496094 C 248.515625 194.089844 248.546875 193.695312 248.609375 193.304688 Z M 248.609375 178.695312 L 248.609375 181.078125 C 248.039062 184.597656 244.988281 187.285156 241.304688 187.285156 C 237.21875 187.285156 233.90625 183.972656 233.90625 179.886719 C 233.90625 175.800781 237.21875 172.488281 241.304688 172.488281 C 244.988281 172.488281 248.039062 175.175781 248.609375 178.695312 Z M 248.609375 166.46875 C 248.546875 166.082031 248.515625 165.683594 248.515625 165.277344 C 248.515625 164.871094 248.546875 164.476562 248.609375 164.085938 Z M 248.609375 181.078125 L 248.609375 178.695312 C 248.671875 179.082031 248.707031 179.480469 248.707031 179.886719 C 248.707031 180.292969 248.671875 180.691406 248.609375 181.078125 Z M 263.21875 193.3125 L 263.21875 195.679688 C 262.652344 199.203125 259.597656 201.898438 255.914062 201.898438 C 252.230469 201.898438 249.179688 199.207031 248.609375 195.6875 L 248.609375 193.304688 C 249.179688 189.785156 252.230469 187.097656 255.914062 187.097656 C 259.597656 187.097656 262.652344 189.789062 263.21875 193.3125 Z M 263.21875 178.703125 L 263.21875 181.070312 C 263.15625 180.683594 263.125 180.289062 263.125 179.886719 C 263.125 179.484375 263.15625 179.089844 263.21875 178.703125 Z M 255.914062 157.878906 C 259.597656 157.878906 262.652344 160.570312 263.21875 164.09375 L 263.21875 166.460938 C 262.652344 169.984375 259.597656 172.675781 255.914062 172.675781 C 252.230469 172.675781 249.179688 169.988281 248.609375 166.46875 L 248.609375 164.085938 C 249.179688 160.566406 252.230469 157.878906 255.914062 157.878906 Z M 263.21875 181.070312 L 263.21875 178.703125 C 263.785156 175.179688 266.839844 172.488281 270.527344 172.488281 C 274.613281 172.488281 277.925781 175.800781 277.925781 179.886719 C 277.925781 183.972656 274.613281 187.285156 270.527344 187.285156 C 266.839844 187.285156 263.785156 184.59375 263.21875 181.070312 Z M 263.21875 195.679688 L 263.21875 193.3125 C 263.28125 193.699219 263.3125 194.09375 263.3125 194.496094 C 263.3125 194.898438 263.28125 195.292969 263.21875 195.679688 Z M 263.21875 164.09375 C 263.28125 164.480469 263.3125 164.875 263.3125 165.277344 C 263.3125 165.679688 263.28125 166.074219 263.21875 166.460938 L 263.21875 164.09375 " fill-opacity="1" fill-rule="evenodd"/><path stroke-linecap="butt" transform="matrix(0.75, 0, 0, 0.75, 102.49176, 199.436353)" fill="none" stroke-linejoin="miter" d="M 37.297447 28.001531 C 36.13078 28.001531 35.089114 27.735906 34.177655 27.215072 C 33.266197 26.689031 32.547447 25.970281 32.026614 25.058822 C 31.500572 24.136947 31.240155 23.090072 31.240155 21.918197 L 31.240155 7.621321 C 31.240155 7.261946 31.359947 6.965071 31.604739 6.730696 C 31.84953 6.491113 32.146405 6.376529 32.490155 6.376529 L 37.000572 6.376529 C 37.359947 6.376529 37.656822 6.491113 37.891197 6.730696 C 38.125572 6.965071 38.240156 7.261946 38.240156 7.621321 L 38.240156 20.673405 C 38.240156 21.017155 38.359947 21.308822 38.594322 21.537989 C 38.828697 21.772364 39.120364 21.886947 39.464114 21.886947 C 39.823489 21.886947 40.120364 21.772364 40.354739 21.537989 C 40.589114 21.308822 40.703697 21.017155 40.703697 20.673405 L 40.703697 7.621321 C 40.703697 7.261946 40.823489 6.965071 41.068281 6.730696 C 41.313072 6.491113 41.604739 6.376529 41.943281 6.376529 L 46.458906 6.376529 C 46.818281 6.376529 47.115156 6.491113 47.349531 6.730696 C 47.589115 6.965071 47.703698 7.261946 47.703698 7.621321 L 47.703698 21.918197 C 47.703698 23.090072 47.443281 24.136947 46.922448 25.058822 C 46.396406 25.970281 45.677656 26.689031 44.771406 27.215072 C 43.865156 27.735906 42.823489 28.001531 41.646406 28.001531 Z M 51.427656 28.001531 C 51.083906 28.001531 50.787031 27.876531 50.54224 27.636947 C 50.297448 27.392156 50.177656 27.100489 50.177656 26.761947 L 50.177656 7.621321 C 50.177656 7.261946 50.297448 6.965071 50.54224 6.730696 C 50.787031 6.491113 51.083906 6.376529 51.427656 6.376529 L 64.318282 6.376529 C 64.682866 6.376529 64.979741 6.491113 65.208907 6.730696 C 65.443282 6.965071 65.563074 7.261946 65.563074 7.621321 L 65.563074 20.298405 C 65.563074 20.636947 65.677657 20.923405 65.912032 21.162989 C 66.146407 21.397364 66.438074 21.511947 66.776616 21.511947 C 67.135991 21.511947 67.432866 21.397364 67.667241 21.162989 C 67.901616 20.923405 68.021408 20.636947 68.021408 20.298405 L 68.021408 7.621321 C 68.021408 7.261946 68.141199 6.965071 68.385991 6.730696 C 68.625574 6.491113 68.922449 6.376529 69.260991 6.376529 L 73.776616 6.376529 C 74.135991 6.376529 74.432866 6.491113 74.667241 6.730696 C 74.906825 6.965071 75.026616 7.261946 75.026616 7.621321 L 75.026616 26.761947 C 75.026616 27.100489 74.906825 27.392156 74.667241 27.636947 C 74.432866 27.876531 74.135991 28.001531 73.776616 28.001531 L 60.880782 28.001531 C 60.54224 28.001531 60.250574 27.876531 60.005782 27.636947 C 59.76099 27.392156 59.641199 27.100489 59.641199 26.761947 L 59.641199 14.162988 C 59.641199 13.819238 59.526615 13.53278 59.29224 13.298405 C 59.057865 13.06403 58.76099 12.949446 58.401615 12.949446 C 58.057865 12.949446 57.766199 13.06403 57.531824 13.298405 C 57.297449 13.53278 57.182865 13.819238 57.182865 14.162988 L 57.182865 26.761947 C 57.182865 27.100489 57.063074 27.392156 56.828699 27.636947 C 56.599532 27.876531 56.302657 28.001531 55.938073 28.001531 Z M 78.740158 28.001531 C 78.396408 28.001531 78.099533 27.876531 77.854742 27.636947 C 77.60995 27.392156 77.490158 27.100489 77.490158 26.761947 L 77.490158 7.621321 C 77.490158 7.261946 77.60995 6.965071 77.854742 6.730696 C 78.099533 6.491113 78.396408 6.376529 78.740158 6.376529 L 83.250575 6.376529 C 83.615159 6.376529 83.912034 6.491113 84.1412 6.730696 C 84.375575 6.965071 84.495367 7.261946 84.495367 7.621321 L 84.495367 26.761947 C 84.495367 27.100489 84.375575 27.392156 84.1412 27.636947 C 83.912034 27.876531 83.615159 28.001531 83.250575 28.001531 Z M 90.568284 28.001531 C 90.318284 28.001531 90.089117 27.928614 89.885992 27.782781 C 89.677659 27.636947 89.537034 27.439031 89.464117 27.189031 L 87.193284 19.647364 C 87.04745 19.194239 86.974534 18.694238 86.974534 18.131738 L 86.974534 7.621321 C 86.974534 7.261946 87.094325 6.965071 87.339117 6.730696 C 87.583909 6.491113 87.875576 6.376529 88.219326 6.376529 L 92.734951 6.376529 C 93.094326 6.376529 93.391201 6.491113 93.625576 6.730696 C 93.859951 6.965071 93.974534 7.261946 93.974534 7.621321 L 93.974534 20.402572 C 93.974534 20.746322 94.094326 21.037989 94.323493 21.28278 C 94.563076 21.522364 94.854743 21.647364 95.198493 21.647364 C 95.557868 21.647364 95.854743 21.522364 96.089118 21.28278 C 96.318284 21.037989 96.438076 20.746322 96.438076 20.402572 L 96.438076 7.621321 C 96.438076 7.261946 96.557868 6.965071 96.802659 6.730696 C 97.047451 6.491113 97.339118 6.376529 97.67766 6.376529 L 102.193285 6.376529 C 102.55266 6.376529 102.849535 6.491113 103.08391 6.730696 C 103.318285 6.965071 103.438077 7.261946 103.438077 7.621321 L 103.438077 18.131738 C 103.438077 18.402572 103.42766 18.65778 103.401618 18.90778 C 103.370368 19.147364 103.313077 19.392155 103.219327 19.647364 L 100.948493 27.189031 C 100.880785 27.439031 100.74016 27.636947 100.526618 27.782781 C 100.323493 27.928614 100.094326 28.001531 99.844326 28.001531 Z M 107.156827 28.001531 C 106.818285 28.001531 106.52141 27.876531 106.276618 27.636947 C 106.031827 27.392156 105.912035 27.100489 105.912035 26.761947 L 105.912035 7.621321 C 105.912035 7.261946 106.031827 6.965071 106.276618 6.730696 C 106.52141 6.491113 106.818285 6.376529 107.156827 6.376529 L 125.21412 6.376529 C 125.573495 6.376529 125.87037 6.491113 126.104745 6.730696 C 126.33912 6.965071 126.453703 7.261946 126.453703 7.621321 L 126.453703 10.808821 C 126.453703 11.152571 126.33912 11.444238 126.104745 11.68903 C 125.87037 11.928613 125.573495 12.048405 125.21412 12.048405 L 114.135994 12.048405 C 113.792244 12.048405 113.500577 12.168196 113.260994 12.40778 C 113.031827 12.636946 112.912036 12.933821 112.912036 13.298405 C 112.912036 13.642155 113.031827 13.928613 113.260994 14.162988 C 113.500577 14.397363 113.792244 14.511947 114.135994 14.511947 L 124.130786 14.511947 C 124.49537 14.511947 124.792245 14.631738 125.021411 14.866113 C 125.260995 15.100488 125.380786 15.397363 125.380786 15.756738 L 125.380786 18.59528 C 125.380786 18.933822 125.260995 19.225489 125.021411 19.475489 C 124.792245 19.715072 124.49537 19.834864 124.130786 19.834864 L 114.135994 19.834864 C 113.792244 19.834864 113.500577 19.959864 113.260994 20.204655 C 113.031827 20.449447 112.912036 20.741114 112.912036 21.079655 C 112.912036 21.418197 113.031827 21.709864 113.260994 21.949447 C 113.500577 22.183822 113.792244 22.298405 114.135994 22.298405 L 125.21412 22.298405 C 125.573495 22.298405 125.87037 22.412989 126.104745 22.647364 C 126.33912 22.881739 126.453703 23.178614 126.453703 23.537989 L 126.453703 26.761947 C 126.453703 27.100489 126.33912 27.392156 126.104745 27.636947 C 125.87037 27.876531 125.573495 28.001531 125.21412 28.001531 Z M 130.177662 28.001531 C 129.833912 28.001531 129.537037 27.876531 129.292245 27.636947 C 129.052662 27.392156 128.927662 27.100489 128.927662 26.761947 L 128.927662 7.621321 C 128.927662 7.261946 129.052662 6.965071 129.292245 6.730696 C 129.537037 6.491113 129.833912 6.376529 130.177662 6.376529 L 144.505788 6.376529 C 145.458913 6.376529 146.307871 6.590071 147.057871 7.017154 C 147.802663 7.439029 148.391205 8.022363 148.81308 8.772363 C 149.234955 9.517155 149.448496 10.371321 149.448496 11.324446 L 149.448496 13.647363 C 149.448496 14.31403 149.229746 14.866113 148.797455 15.298405 C 148.370371 15.725488 147.818288 15.944238 147.151621 15.944238 L 146.990163 15.944238 C 146.646413 15.944238 146.359954 16.06403 146.120371 16.298405 C 145.885996 16.53278 145.771413 16.829655 145.771413 17.18903 C 145.771413 17.527572 145.885996 17.819238 146.120371 18.053613 C 146.359954 18.287988 146.646413 18.402572 146.990163 18.402572 L 147.229746 18.402572 C 147.880788 18.402572 148.412038 18.610905 148.823496 19.027572 C 149.240163 19.43903 149.448496 19.97028 149.448496 20.621322 L 149.448496 26.725489 C 149.448496 27.069239 149.328705 27.366114 149.09433 27.621322 C 148.865163 27.876531 148.568288 28.001531 148.203705 28.001531 L 143.693288 28.001531 C 143.349538 28.001531 143.052663 27.876531 142.807871 27.636947 C 142.563079 27.392156 142.443287 27.100489 142.443287 26.761947 L 142.443287 21.136947 C 142.443287 20.793197 142.328704 20.506739 142.094329 20.272364 C 141.859954 20.03278 141.563079 19.918197 141.203704 19.918197 L 137.15162 19.918197 C 136.80787 19.918197 136.516204 20.03278 136.281829 20.272364 C 136.047454 20.506739 135.93287 20.793197 135.93287 21.136947 L 135.93287 26.725489 C 135.93287 27.069239 135.813079 27.366114 135.578704 27.621322 C 135.349537 27.876531 135.052662 28.001531 134.688079 28.001531 Z M 137.15162 14.433822 L 141.203704 14.433822 C 141.563079 14.433822 141.859954 14.31403 142.094329 14.084863 C 142.328704 13.84528 142.443287 13.553613 142.443287 13.209863 C 142.443287 12.871321 142.328704 12.584863 142.094329 12.355696 C 141.859954 12.116113 141.563079 11.996321 141.203704 11.996321 L 137.15162 11.996321 C 136.80787 11.996321 136.516204 12.116113 136.281829 12.355696 C 136.047454 12.584863 135.93287 12.871321 135.93287 13.209863 C 135.93287 13.553613 136.047454 13.84528 136.281829 14.084863 C 136.516204 14.31403 136.80787 14.433822 137.15162 14.433822 Z M 153.167246 28.001531 C 152.823496 28.001531 152.526621 27.876531 152.28183 27.636947 C 152.042246 27.392156 151.917246 27.100489 151.917246 26.761947 L 151.917246 23.678614 C 151.917246 23.319239 152.042246 23.022364 152.28183 22.787989 C 152.526621 22.548405 152.823496 22.428614 153.167246 22.428614 L 164.193289 22.428614 C 164.552664 22.428614 164.849539 22.31403 165.083914 22.079655 C 165.318289 21.84528 165.432872 21.558822 165.432872 21.215072 C 165.432872 20.871322 165.318289 20.579655 165.083914 20.340072 C 164.849539 20.090072 164.552664 19.97028 164.193289 19.97028 L 157.839122 19.97028 C 156.703705 19.97028 155.68808 19.715072 154.797455 19.204655 C 153.90683 18.68903 153.208913 17.985905 152.693288 17.100488 C 152.177663 16.204655 151.917246 15.18903 151.917246 14.048405 L 151.917246 12.293196 C 151.917246 11.142155 152.177663 10.12653 152.693288 9.246321 C 153.208913 8.360904 153.90683 7.662988 154.797455 7.147363 C 155.68808 6.631738 156.703705 6.376529 157.839122 6.376529 L 171.193289 6.376529 C 171.557873 6.376529 171.854748 6.491113 172.089123 6.730696 C 172.318289 6.965071 172.438081 7.261946 172.438081 7.621321 L 172.438081 10.668196 C 172.438081 11.011946 172.318289 11.308821 172.089123 11.553613 C 171.854748 11.798405 171.557873 11.918196 171.193289 11.918196 L 160.141205 11.918196 C 159.797455 11.918196 159.510997 12.03278 159.271414 12.267155 C 159.037039 12.50153 158.922455 12.798405 158.922455 13.15778 C 158.922455 13.50153 159.037039 13.793197 159.271414 14.027572 C 159.510997 14.261947 159.797455 14.381738 160.141205 14.381738 L 166.516206 14.381738 C 167.667247 14.381738 168.688081 14.636947 169.573498 15.152572 C 170.458914 15.662988 171.151623 16.360905 171.662039 17.241113 C 172.177664 18.121322 172.438081 19.142155 172.438081 20.298405 L 172.438081 22.053614 C 172.438081 23.18903 172.177664 24.209864 171.662039 25.110906 C 171.151623 26.011947 170.458914 26.720281 169.573498 27.235906 C 168.688081 27.746322 167.667247 28.001531 166.516206 28.001531 Z M 176.156831 28.001531 C 175.813081 28.001531 175.521415 27.876531 175.271415 27.636947 C 175.031831 27.392156 174.91204 27.100489 174.91204 26.761947 L 174.91204 7.621321 C 174.91204 7.261946 175.031831 6.965071 175.271415 6.730696 C 175.521415 6.491113 175.813081 6.376529 176.156831 6.376529 L 194.214124 6.376529 C 194.573499 6.376529 194.870374 6.491113 195.104749 6.730696 C 195.339124 6.965071 195.453708 7.261946 195.453708 7.621321 L 195.453708 10.808821 C 195.453708 11.152571 195.339124 11.444238 195.104749 11.68903 C 194.870374 11.928613 194.573499 12.048405 194.214124 12.048405 L 183.13079 12.048405 C 182.78704 12.048405 182.500582 12.168196 182.260998 12.40778 C 182.026623 12.636946 181.91204 12.933821 181.91204 13.298405 C 181.91204 13.642155 182.026623 13.928613 182.260998 14.162988 C 182.500582 14.397363 182.78704 14.511947 183.13079 14.511947 L 193.130791 14.511947 C 193.490166 14.511947 193.787041 14.631738 194.021416 14.866113 C 194.260999 15.100488 194.375583 15.397363 194.375583 15.756738 L 194.375583 18.59528 C 194.375583 18.933822 194.260999 19.225489 194.021416 19.475489 C 193.787041 19.715072 193.490166 19.834864 193.130791 19.834864 L 183.13079 19.834864 C 182.78704 19.834864 182.500582 19.959864 182.260998 20.204655 C 182.026623 20.449447 181.91204 20.741114 181.91204 21.079655 C 181.91204 21.418197 182.026623 21.709864 182.260998 21.949447 C 182.500582 22.183822 182.78704 22.298405 183.13079 22.298405 L 194.214124 22.298405 C 194.573499 22.298405 194.870374 22.412989 195.104749 22.647364 C 195.339124 22.881739 195.453708 23.178614 195.453708 23.537989 L 195.453708 26.761947 C 195.453708 27.100489 195.339124 27.392156 195.104749 27.636947 C 194.870374 27.876531 194.573499 28.001531 194.214124 28.001531 Z M 176.156831 28.001531 " stroke="#000000" stroke-width="7.096215" stroke-opacity="1" stroke-miterlimit="4"/><g fill="#ffffff" fill-opacity="1"><g transform="translate(124.991759, 220.436352)"><g><path d="M 5.46875 0 C 4.59375 0 3.8125 -0.191406 3.125 -0.578125 C 2.445312 -0.972656 1.910156 -1.515625 1.515625 -2.203125 C 1.128906 -2.898438 0.9375 -3.6875 0.9375 -4.5625 L 0.9375 -15.28125 C 0.9375 -15.550781 1.023438 -15.773438 1.203125 -15.953125 C 1.390625 -16.128906 1.609375 -16.21875 1.859375 -16.21875 L 5.25 -16.21875 C 5.519531 -16.21875 5.742188 -16.128906 5.921875 -15.953125 C 6.097656 -15.773438 6.1875 -15.550781 6.1875 -15.28125 L 6.1875 -5.484375 C 6.1875 -5.234375 6.269531 -5.019531 6.4375 -4.84375 C 6.613281 -4.664062 6.832031 -4.578125 7.09375 -4.578125 C 7.363281 -4.578125 7.585938 -4.664062 7.765625 -4.84375 C 7.941406 -5.019531 8.03125 -5.234375 8.03125 -5.484375 L 8.03125 -15.28125 C 8.03125 -15.550781 8.117188 -15.773438 8.296875 -15.953125 C 8.484375 -16.128906 8.703125 -16.21875 8.953125 -16.21875 L 12.34375 -16.21875 C 12.613281 -16.21875 12.835938 -16.128906 13.015625 -15.953125 C 13.191406 -15.773438 13.28125 -15.550781 13.28125 -15.28125 L 13.28125 -4.5625 C 13.28125 -3.6875 13.082031 -2.898438 12.6875 -2.203125 C 12.289062 -1.515625 11.75 -0.972656 11.0625 -0.578125 C 10.382812 -0.191406 9.609375 0 8.734375 0 Z M 5.46875 0 "/></g></g></g><g fill="#ffffff" fill-opacity="1"><g transform="translate(139.195261, 220.436352)"><g><path d="M 1.859375 0 C 1.609375 0 1.390625 -0.0859375 1.203125 -0.265625 C 1.023438 -0.453125 0.9375 -0.675781 0.9375 -0.9375 L 0.9375 -15.28125 C 0.9375 -15.550781 1.023438 -15.773438 1.203125 -15.953125 C 1.390625 -16.128906 1.609375 -16.21875 1.859375 -16.21875 L 11.53125 -16.21875 C 11.800781 -16.21875 12.023438 -16.128906 12.203125 -15.953125 C 12.378906 -15.773438 12.46875 -15.550781 12.46875 -15.28125 L 12.46875 -5.78125 C 12.46875 -5.519531 12.550781 -5.300781 12.71875 -5.125 C 12.894531 -4.945312 13.113281 -4.859375 13.375 -4.859375 C 13.644531 -4.859375 13.867188 -4.945312 14.046875 -5.125 C 14.222656 -5.300781 14.3125 -5.519531 14.3125 -5.78125 L 14.3125 -15.28125 C 14.3125 -15.550781 14.398438 -15.773438 14.578125 -15.953125 C 14.765625 -16.128906 14.984375 -16.21875 15.234375 -16.21875 L 18.625 -16.21875 C 18.894531 -16.21875 19.117188 -16.128906 19.296875 -15.953125 C 19.472656 -15.773438 19.5625 -15.550781 19.5625 -15.28125 L 19.5625 -0.9375 C 19.5625 -0.675781 19.472656 -0.453125 19.296875 -0.265625 C 19.117188 -0.0859375 18.894531 0 18.625 0 L 8.953125 0 C 8.703125 0 8.484375 -0.0859375 8.296875 -0.265625 C 8.117188 -0.453125 8.03125 -0.675781 8.03125 -0.9375 L 8.03125 -10.375 C 8.03125 -10.632812 7.941406 -10.847656 7.765625 -11.015625 C 7.585938 -11.191406 7.363281 -11.28125 7.09375 -11.28125 C 6.832031 -11.28125 6.613281 -11.191406 6.4375 -11.015625 C 6.269531 -10.847656 6.1875 -10.632812 6.1875 -10.375 L 6.1875 -0.9375 C 6.1875 -0.675781 6.097656 -0.453125 5.921875 -0.265625 C 5.742188 -0.0859375 5.519531 0 5.25 0 Z M 1.859375 0 "/></g></g></g><g fill="#ffffff" fill-opacity="1"><g transform="translate(159.679909, 220.436352)"><g><path d="M 1.859375 0 C 1.609375 0 1.390625 -0.0859375 1.203125 -0.265625 C 1.023438 -0.453125 0.9375 -0.675781 0.9375 -0.9375 L 0.9375 -15.28125 C 0.9375 -15.550781 1.023438 -15.773438 1.203125 -15.953125 C 1.390625 -16.128906 1.609375 -16.21875 1.859375 -16.21875 L 5.25 -16.21875 C 5.519531 -16.21875 5.742188 -16.128906 5.921875 -15.953125 C 6.097656 -15.773438 6.1875 -15.550781 6.1875 -15.28125 L 6.1875 -0.9375 C 6.1875 -0.675781 6.097656 -0.453125 5.921875 -0.265625 C 5.742188 -0.0859375 5.519531 0 5.25 0 Z M 1.859375 0 "/></g></g></g><g fill="#ffffff" fill-opacity="1"><g transform="translate(166.791793, 220.436352)"><g><path d="M 3.625 0 C 3.4375 0 3.265625 -0.0507812 3.109375 -0.15625 C 2.953125 -0.269531 2.847656 -0.421875 2.796875 -0.609375 L 1.09375 -6.265625 C 0.988281 -6.597656 0.9375 -6.972656 0.9375 -7.390625 L 0.9375 -15.28125 C 0.9375 -15.550781 1.023438 -15.773438 1.203125 -15.953125 C 1.390625 -16.128906 1.609375 -16.21875 1.859375 -16.21875 L 5.25 -16.21875 C 5.519531 -16.21875 5.742188 -16.128906 5.921875 -15.953125 C 6.097656 -15.773438 6.1875 -15.550781 6.1875 -15.28125 L 6.1875 -5.6875 C 6.1875 -5.4375 6.269531 -5.21875 6.4375 -5.03125 C 6.613281 -4.851562 6.832031 -4.765625 7.09375 -4.765625 C 7.363281 -4.765625 7.585938 -4.851562 7.765625 -5.03125 C 7.941406 -5.21875 8.03125 -5.4375 8.03125 -5.6875 L 8.03125 -15.28125 C 8.03125 -15.550781 8.117188 -15.773438 8.296875 -15.953125 C 8.484375 -16.128906 8.703125 -16.21875 8.953125 -16.21875 L 12.34375 -16.21875 C 12.613281 -16.21875 12.835938 -16.128906 13.015625 -15.953125 C 13.191406 -15.773438 13.28125 -15.550781 13.28125 -15.28125 L 13.28125 -7.390625 C 13.28125 -7.191406 13.269531 -7 13.25 -6.8125 C 13.226562 -6.632812 13.179688 -6.453125 13.109375 -6.265625 L 11.40625 -0.609375 C 11.351562 -0.421875 11.25 -0.269531 11.09375 -0.15625 C 10.9375 -0.0507812 10.765625 0 10.578125 0 Z M 3.625 0 "/></g></g></g><g fill="#ffffff" fill-opacity="1"><g transform="translate(180.995296, 220.436352)"><g><path d="M 1.859375 0 C 1.609375 0 1.390625 -0.0859375 1.203125 -0.265625 C 1.023438 -0.453125 0.9375 -0.675781 0.9375 -0.9375 L 0.9375 -15.28125 C 0.9375 -15.550781 1.023438 -15.773438 1.203125 -15.953125 C 1.390625 -16.128906 1.609375 -16.21875 1.859375 -16.21875 L 15.40625 -16.21875 C 15.675781 -16.21875 15.894531 -16.128906 16.0625 -15.953125 C 16.238281 -15.773438 16.328125 -15.550781 16.328125 -15.28125 L 16.328125 -12.890625 C 16.328125 -12.628906 16.238281 -12.40625 16.0625 -12.21875 C 15.894531 -12.039062 15.675781 -11.953125 15.40625 -11.953125 L 7.09375 -11.953125 C 6.832031 -11.953125 6.613281 -11.863281 6.4375 -11.6875 C 6.269531 -11.519531 6.1875 -11.300781 6.1875 -11.03125 C 6.1875 -10.769531 6.269531 -10.550781 6.4375 -10.375 C 6.613281 -10.195312 6.832031 -10.109375 7.09375 -10.109375 L 14.59375 -10.109375 C 14.863281 -10.109375 15.082031 -10.019531 15.25 -9.84375 C 15.425781 -9.664062 15.515625 -9.445312 15.515625 -9.1875 L 15.515625 -7.046875 C 15.515625 -6.796875 15.425781 -6.578125 15.25 -6.390625 C 15.082031 -6.210938 14.863281 -6.125 14.59375 -6.125 L 7.09375 -6.125 C 6.832031 -6.125 6.613281 -6.03125 6.4375 -5.84375 C 6.269531 -5.664062 6.1875 -5.445312 6.1875 -5.1875 C 6.1875 -4.925781 6.269531 -4.707031 6.4375 -4.53125 C 6.613281 -4.363281 6.832031 -4.28125 7.09375 -4.28125 L 15.40625 -4.28125 C 15.675781 -4.28125 15.894531 -4.191406 16.0625 -4.015625 C 16.238281 -3.835938 16.328125 -3.613281 16.328125 -3.34375 L 16.328125 -0.9375 C 16.328125 -0.675781 16.238281 -0.453125 16.0625 -0.265625 C 15.894531 -0.0859375 15.675781 0 15.40625 0 Z M 1.859375 0 "/></g></g></g><g fill="#ffffff" fill-opacity="1"><g transform="translate(198.258318, 220.436352)"><g><path d="M 1.859375 0 C 1.609375 0 1.390625 -0.0859375 1.203125 -0.265625 C 1.023438 -0.453125 0.9375 -0.675781 0.9375 -0.9375 L 0.9375 -15.28125 C 0.9375 -15.550781 1.023438 -15.773438 1.203125 -15.953125 C 1.390625 -16.128906 1.609375 -16.21875 1.859375 -16.21875 L 12.609375 -16.21875 C 13.316406 -16.21875 13.953125 -16.054688 14.515625 -15.734375 C 15.078125 -15.421875 15.515625 -14.984375 15.828125 -14.421875 C 16.148438 -13.859375 16.3125 -13.21875 16.3125 -12.5 L 16.3125 -10.765625 C 16.3125 -10.265625 16.148438 -9.847656 15.828125 -9.515625 C 15.503906 -9.191406 15.09375 -9.03125 14.59375 -9.03125 L 14.46875 -9.03125 C 14.207031 -9.03125 13.988281 -8.941406 13.8125 -8.765625 C 13.644531 -8.597656 13.5625 -8.378906 13.5625 -8.109375 C 13.5625 -7.847656 13.644531 -7.628906 13.8125 -7.453125 C 13.988281 -7.273438 14.207031 -7.1875 14.46875 -7.1875 L 14.65625 -7.1875 C 15.132812 -7.1875 15.53125 -7.03125 15.84375 -6.71875 C 16.15625 -6.414062 16.3125 -6.019531 16.3125 -5.53125 L 16.3125 -0.953125 C 16.3125 -0.691406 16.222656 -0.46875 16.046875 -0.28125 C 15.867188 -0.09375 15.644531 0 15.375 0 L 12 0 C 11.738281 0 11.515625 -0.0859375 11.328125 -0.265625 C 11.148438 -0.453125 11.0625 -0.675781 11.0625 -0.9375 L 11.0625 -5.140625 C 11.0625 -5.398438 10.972656 -5.617188 10.796875 -5.796875 C 10.617188 -5.972656 10.394531 -6.0625 10.125 -6.0625 L 7.09375 -6.0625 C 6.832031 -6.0625 6.613281 -5.972656 6.4375 -5.796875 C 6.269531 -5.617188 6.1875 -5.398438 6.1875 -5.140625 L 6.1875 -0.953125 C 6.1875 -0.691406 6.097656 -0.46875 5.921875 -0.28125 C 5.742188 -0.09375 5.519531 0 5.25 0 Z M 7.09375 -10.171875 L 10.125 -10.171875 C 10.394531 -10.171875 10.617188 -10.257812 10.796875 -10.4375 C 10.972656 -10.613281 11.0625 -10.828125 11.0625 -11.078125 C 11.0625 -11.335938 10.972656 -11.554688 10.796875 -11.734375 C 10.617188 -11.910156 10.394531 -12 10.125 -12 L 7.09375 -12 C 6.832031 -12 6.613281 -11.910156 6.4375 -11.734375 C 6.269531 -11.554688 6.1875 -11.335938 6.1875 -11.078125 C 6.1875 -10.828125 6.269531 -10.613281 6.4375 -10.4375 C 6.613281 -10.257812 6.832031 -10.171875 7.09375 -10.171875 Z M 7.09375 -10.171875 "/></g></g></g><g fill="#ffffff" fill-opacity="1"><g transform="translate(215.501084, 220.436352)"><g><path d="M 1.859375 0 C 1.609375 0 1.390625 -0.0859375 1.203125 -0.265625 C 1.023438 -0.453125 0.9375 -0.675781 0.9375 -0.9375 L 0.9375 -3.25 C 0.9375 -3.507812 1.023438 -3.726562 1.203125 -3.90625 C 1.390625 -4.082031 1.609375 -4.171875 1.859375 -4.171875 L 10.125 -4.171875 C 10.394531 -4.171875 10.617188 -4.257812 10.796875 -4.4375 C 10.972656 -4.613281 11.0625 -4.832031 11.0625 -5.09375 C 11.0625 -5.34375 10.972656 -5.554688 10.796875 -5.734375 C 10.617188 -5.921875 10.394531 -6.015625 10.125 -6.015625 L 5.375 -6.015625 C 4.519531 -6.015625 3.757812 -6.207031 3.09375 -6.59375 C 2.425781 -6.976562 1.898438 -7.503906 1.515625 -8.171875 C 1.128906 -8.847656 0.9375 -9.609375 0.9375 -10.453125 L 0.9375 -11.78125 C 0.9375 -12.644531 1.128906 -13.40625 1.515625 -14.0625 C 1.898438 -14.726562 2.425781 -15.253906 3.09375 -15.640625 C 3.757812 -16.023438 4.519531 -16.21875 5.375 -16.21875 L 15.375 -16.21875 C 15.644531 -16.21875 15.867188 -16.128906 16.046875 -15.953125 C 16.222656 -15.773438 16.3125 -15.550781 16.3125 -15.28125 L 16.3125 -12.984375 C 16.3125 -12.734375 16.222656 -12.515625 16.046875 -12.328125 C 15.867188 -12.148438 15.644531 -12.0625 15.375 -12.0625 L 7.09375 -12.0625 C 6.832031 -12.0625 6.613281 -11.972656 6.4375 -11.796875 C 6.269531 -11.617188 6.1875 -11.394531 6.1875 -11.125 C 6.1875 -10.863281 6.269531 -10.644531 6.4375 -10.46875 C 6.613281 -10.300781 6.832031 -10.21875 7.09375 -10.21875 L 11.875 -10.21875 C 12.738281 -10.21875 13.5 -10.023438 14.15625 -9.640625 C 14.820312 -9.253906 15.347656 -8.726562 15.734375 -8.0625 C 16.117188 -7.40625 16.3125 -6.644531 16.3125 -5.78125 L 16.3125 -4.453125 C 16.3125 -3.609375 16.117188 -2.847656 15.734375 -2.171875 C 15.347656 -1.492188 14.820312 -0.960938 14.15625 -0.578125 C 13.5 -0.191406 12.738281 0 11.875 0 Z M 1.859375 0 "/></g></g></g><g fill="#ffffff" fill-opacity="1"><g transform="translate(232.74385, 220.436352)"><g><path d="M 1.859375 0 C 1.609375 0 1.390625 -0.0859375 1.203125 -0.265625 C 1.023438 -0.453125 0.9375 -0.675781 0.9375 -0.9375 L 0.9375 -15.28125 C 0.9375 -15.550781 1.023438 -15.773438 1.203125 -15.953125 C 1.390625 -16.128906 1.609375 -16.21875 1.859375 -16.21875 L 15.40625 -16.21875 C 15.675781 -16.21875 15.894531 -16.128906 16.0625 -15.953125 C 16.238281 -15.773438 16.328125 -15.550781 16.328125 -15.28125 L 16.328125 -12.890625 C 16.328125 -12.628906 16.238281 -12.40625 16.0625 -12.21875 C 15.894531 -12.039062 15.675781 -11.953125 15.40625 -11.953125 L 7.09375 -11.953125 C 6.832031 -11.953125 6.613281 -11.863281 6.4375 -11.6875 C 6.269531 -11.519531 6.1875 -11.300781 6.1875 -11.03125 C 6.1875 -10.769531 6.269531 -10.550781 6.4375 -10.375 C 6.613281 -10.195312 6.832031 -10.109375 7.09375 -10.109375 L 14.59375 -10.109375 C 14.863281 -10.109375 15.082031 -10.019531 15.25 -9.84375 C 15.425781 -9.664062 15.515625 -9.445312 15.515625 -9.1875 L 15.515625 -7.046875 C 15.515625 -6.796875 15.425781 -6.578125 15.25 -6.390625 C 15.082031 -6.210938 14.863281 -6.125 14.59375 -6.125 L 7.09375 -6.125 C 6.832031 -6.125 6.613281 -6.03125 6.4375 -5.84375 C 6.269531 -5.664062 6.1875 -5.445312 6.1875 -5.1875 C 6.1875 -4.925781 6.269531 -4.707031 6.4375 -4.53125 C 6.613281 -4.363281 6.832031 -4.28125 7.09375 -4.28125 L 15.40625 -4.28125 C 15.675781 -4.28125 15.894531 -4.191406 16.0625 -4.015625 C 16.238281 -3.835938 16.328125 -3.613281 16.328125 -3.34375 L 16.328125 -0.9375 C 16.328125 -0.675781 16.238281 -0.453125 16.0625 -0.265625 C 15.894531 -0.0859375 15.675781 0 15.40625 0 Z M 1.859375 0 "/></g></g></g><g fill="#3bf60d" fill-opacity="1"><g transform="translate(160.059129, 239.701331)"><g><path d="M 5.859375 0.140625 C 4.785156 0.140625 3.859375 -0.0625 3.078125 -0.46875 C 2.296875 -0.875 1.695312 -1.457031 1.28125 -2.21875 C 0.863281 -2.988281 0.65625 -3.898438 0.65625 -4.953125 C 0.65625 -5.992188 0.863281 -6.898438 1.28125 -7.671875 C 1.695312 -8.441406 2.289062 -9.03125 3.0625 -9.4375 C 3.84375 -9.851562 4.765625 -10.0625 5.828125 -10.0625 C 6.703125 -10.0625 7.507812 -9.910156 8.25 -9.609375 C 9 -9.304688 9.554688 -8.90625 9.921875 -8.40625 C 10.035156 -8.25 10.09375 -8.09375 10.09375 -7.9375 C 10.09375 -7.695312 9.960938 -7.484375 9.703125 -7.296875 C 9.585938 -7.210938 9.445312 -7.171875 9.28125 -7.171875 C 9.132812 -7.171875 8.988281 -7.203125 8.84375 -7.265625 C 8.707031 -7.328125 8.59375 -7.414062 8.5 -7.53125 C 8.175781 -7.894531 7.800781 -8.160156 7.375 -8.328125 C 6.957031 -8.492188 6.441406 -8.578125 5.828125 -8.578125 C 4.796875 -8.578125 3.988281 -8.253906 3.40625 -7.609375 C 2.832031 -6.972656 2.546875 -6.085938 2.546875 -4.953125 C 2.546875 -3.816406 2.835938 -2.929688 3.421875 -2.296875 C 4.003906 -1.660156 4.816406 -1.34375 5.859375 -1.34375 C 6.710938 -1.34375 7.382812 -1.507812 7.875 -1.84375 C 8.363281 -2.175781 8.609375 -2.632812 8.609375 -3.21875 L 8.609375 -3.53125 C 8.609375 -3.726562 8.5625 -3.863281 8.46875 -3.9375 C 8.375 -4.007812 8.21875 -4.046875 8 -4.046875 L 6.15625 -4.046875 C 5.882812 -4.046875 5.671875 -4.109375 5.515625 -4.234375 C 5.367188 -4.367188 5.296875 -4.550781 5.296875 -4.78125 C 5.296875 -5.007812 5.367188 -5.1875 5.515625 -5.3125 C 5.660156 -5.445312 5.875 -5.515625 6.15625 -5.515625 L 8.90625 -5.515625 C 9.445312 -5.515625 9.84375 -5.394531 10.09375 -5.15625 C 10.351562 -4.925781 10.484375 -4.5625 10.484375 -4.0625 L 10.484375 -3.515625 C 10.484375 -2.796875 10.289062 -2.160156 9.90625 -1.609375 C 9.519531 -1.054688 8.972656 -0.625 8.265625 -0.3125 C 7.566406 -0.0078125 6.765625 0.140625 5.859375 0.140625 Z M 5.859375 0.140625 "/></g></g></g><g fill="#3bf60d" fill-opacity="1"><g transform="translate(171.197182, 239.701331)"><g><path d="M 1.65625 0.125 C 1.375 0.125 1.144531 0.0507812 0.96875 -0.09375 C 0.800781 -0.25 0.71875 -0.457031 0.71875 -0.71875 L 0.71875 -5.6875 C 0.71875 -7.050781 1.109375 -8.117188 1.890625 -8.890625 C 2.679688 -9.671875 3.773438 -10.0625 5.171875 -10.0625 C 6.085938 -10.0625 6.878906 -9.882812 7.546875 -9.53125 C 8.222656 -9.1875 8.738281 -8.679688 9.09375 -8.015625 C 9.445312 -7.359375 9.625 -6.582031 9.625 -5.6875 L 9.625 -0.71875 C 9.625 -0.457031 9.535156 -0.25 9.359375 -0.09375 C 9.191406 0.0507812 8.96875 0.125 8.6875 0.125 C 8.40625 0.125 8.175781 0.046875 8 -0.109375 C 7.820312 -0.265625 7.734375 -0.46875 7.734375 -0.71875 L 7.734375 -3.03125 L 2.609375 -3.03125 L 2.609375 -0.71875 C 2.609375 -0.46875 2.519531 -0.265625 2.34375 -0.109375 C 2.164062 0.046875 1.9375 0.125 1.65625 0.125 Z M 7.734375 -4.5 L 7.734375 -5.71875 C 7.734375 -6.664062 7.519531 -7.378906 7.09375 -7.859375 C 6.664062 -8.335938 6.023438 -8.578125 5.171875 -8.578125 C 3.460938 -8.578125 2.609375 -7.625 2.609375 -5.71875 L 2.609375 -4.5 Z M 7.734375 -4.5 "/></g></g></g><g fill="#3bf60d" fill-opacity="1"><g transform="translate(181.541685, 239.701331)"><g><path d="M 1.734375 0.140625 C 1.441406 0.140625 1.210938 0.0664062 1.046875 -0.078125 C 0.878906 -0.234375 0.796875 -0.441406 0.796875 -0.703125 L 0.796875 -6.546875 C 0.796875 -7.640625 1.109375 -8.5 1.734375 -9.125 C 2.359375 -9.75 3.21875 -10.0625 4.3125 -10.0625 C 4.84375 -10.0625 5.335938 -9.929688 5.796875 -9.671875 C 6.265625 -9.410156 6.671875 -9.039062 7.015625 -8.5625 C 7.347656 -9.050781 7.75 -9.421875 8.21875 -9.671875 C 8.6875 -9.929688 9.191406 -10.0625 9.734375 -10.0625 C 10.828125 -10.0625 11.6875 -9.75 12.3125 -9.125 C 12.9375 -8.5 13.25 -7.640625 13.25 -6.546875 L 13.25 -0.703125 C 13.25 -0.453125 13.160156 -0.25 12.984375 -0.09375 C 12.804688 0.0625 12.578125 0.140625 12.296875 0.140625 C 12.015625 0.140625 11.785156 0.0664062 11.609375 -0.078125 C 11.441406 -0.234375 11.359375 -0.441406 11.359375 -0.703125 L 11.359375 -6.546875 C 11.359375 -7.265625 11.226562 -7.78125 10.96875 -8.09375 C 10.707031 -8.414062 10.273438 -8.578125 9.671875 -8.578125 C 9.117188 -8.578125 8.691406 -8.398438 8.390625 -8.046875 C 8.097656 -7.703125 7.953125 -7.203125 7.953125 -6.546875 L 7.953125 -0.703125 C 7.953125 -0.441406 7.863281 -0.234375 7.6875 -0.078125 C 7.519531 0.0664062 7.296875 0.140625 7.015625 0.140625 C 6.734375 0.140625 6.507812 0.0664062 6.34375 -0.078125 C 6.175781 -0.234375 6.09375 -0.441406 6.09375 -0.703125 L 6.09375 -6.546875 C 6.09375 -7.179688 5.941406 -7.675781 5.640625 -8.03125 C 5.335938 -8.394531 4.914062 -8.578125 4.375 -8.578125 C 3.769531 -8.578125 3.332031 -8.414062 3.0625 -8.09375 C 2.800781 -7.78125 2.671875 -7.265625 2.671875 -6.546875 L 2.671875 -0.703125 C 2.671875 -0.453125 2.582031 -0.25 2.40625 -0.09375 C 2.238281 0.0625 2.015625 0.140625 1.734375 0.140625 Z M 1.734375 0.140625 "/></g></g></g><g fill="#3bf60d" fill-opacity="1"><g transform="translate(195.584708, 239.701331)"><g><path d="M 3.0625 0 C 2.34375 0 1.785156 -0.1875 1.390625 -0.5625 C 0.992188 -0.945312 0.796875 -1.476562 0.796875 -2.15625 L 0.796875 -7.828125 C 0.796875 -8.484375 0.984375 -8.992188 1.359375 -9.359375 C 1.742188 -9.734375 2.28125 -9.921875 2.96875 -9.921875 L 7.375 -9.921875 C 7.65625 -9.921875 7.867188 -9.851562 8.015625 -9.71875 C 8.171875 -9.59375 8.25 -9.414062 8.25 -9.1875 C 8.25 -8.957031 8.171875 -8.773438 8.015625 -8.640625 C 7.859375 -8.515625 7.644531 -8.453125 7.375 -8.453125 L 3.28125 -8.453125 C 3.09375 -8.453125 2.941406 -8.390625 2.828125 -8.265625 C 2.722656 -8.148438 2.671875 -7.984375 2.671875 -7.765625 L 2.671875 -5.796875 L 6.296875 -5.796875 C 6.578125 -5.796875 6.789062 -5.726562 6.9375 -5.59375 C 7.09375 -5.46875 7.171875 -5.289062 7.171875 -5.0625 C 7.171875 -4.832031 7.09375 -4.65625 6.9375 -4.53125 C 6.78125 -4.40625 6.566406 -4.34375 6.296875 -4.34375 L 2.671875 -4.34375 L 2.671875 -2.15625 C 2.671875 -1.9375 2.722656 -1.765625 2.828125 -1.640625 C 2.941406 -1.515625 3.09375 -1.453125 3.28125 -1.453125 L 7.6875 -1.453125 C 7.96875 -1.453125 8.179688 -1.390625 8.328125 -1.265625 C 8.484375 -1.140625 8.5625 -0.957031 8.5625 -0.71875 C 8.5625 -0.488281 8.484375 -0.3125 8.328125 -0.1875 C 8.171875 -0.0625 7.957031 0 7.6875 0 Z M 3.0625 0 "/></g></g></g><g fill="#3bf60d" fill-opacity="1"><g transform="translate(204.795566, 239.701331)"><g><path d="M 5.578125 0.140625 C 4.648438 0.140625 3.78125 -0.0078125 2.96875 -0.3125 C 2.15625 -0.625 1.453125 -1.066406 0.859375 -1.640625 C 0.722656 -1.785156 0.65625 -1.945312 0.65625 -2.125 C 0.65625 -2.332031 0.75 -2.53125 0.9375 -2.71875 C 1.082031 -2.875 1.25 -2.953125 1.4375 -2.953125 C 1.625 -2.953125 1.847656 -2.84375 2.109375 -2.625 C 2.554688 -2.21875 3.082031 -1.898438 3.6875 -1.671875 C 4.300781 -1.453125 4.929688 -1.34375 5.578125 -1.34375 C 6.203125 -1.34375 6.6875 -1.445312 7.03125 -1.65625 C 7.382812 -1.875 7.5625 -2.175781 7.5625 -2.5625 C 7.5625 -2.96875 7.375 -3.296875 7 -3.546875 C 6.625 -3.796875 5.984375 -4.019531 5.078125 -4.21875 C 3.648438 -4.53125 2.609375 -4.941406 1.953125 -5.453125 C 1.304688 -5.960938 0.984375 -6.617188 0.984375 -7.421875 C 0.984375 -7.929688 1.15625 -8.382812 1.5 -8.78125 C 1.84375 -9.1875 2.316406 -9.5 2.921875 -9.71875 C 3.535156 -9.945312 4.234375 -10.0625 5.015625 -10.0625 C 5.890625 -10.0625 6.671875 -9.914062 7.359375 -9.625 C 8.046875 -9.34375 8.566406 -8.941406 8.921875 -8.421875 C 9.046875 -8.222656 9.109375 -8.050781 9.109375 -7.90625 C 9.097656 -7.664062 8.984375 -7.460938 8.765625 -7.296875 C 8.640625 -7.210938 8.492188 -7.171875 8.328125 -7.171875 C 8.035156 -7.171875 7.796875 -7.285156 7.609375 -7.515625 C 7.335938 -7.835938 6.972656 -8.09375 6.515625 -8.28125 C 6.054688 -8.476562 5.554688 -8.578125 5.015625 -8.578125 C 4.347656 -8.578125 3.828125 -8.472656 3.453125 -8.265625 C 3.078125 -8.066406 2.890625 -7.785156 2.890625 -7.421875 C 2.890625 -7.066406 3.070312 -6.769531 3.4375 -6.53125 C 3.800781 -6.300781 4.429688 -6.082031 5.328125 -5.875 C 6.316406 -5.644531 7.113281 -5.378906 7.71875 -5.078125 C 8.320312 -4.785156 8.765625 -4.4375 9.046875 -4.03125 C 9.328125 -3.625 9.46875 -3.132812 9.46875 -2.5625 C 9.46875 -2.019531 9.304688 -1.546875 8.984375 -1.140625 C 8.660156 -0.734375 8.207031 -0.414062 7.625 -0.1875 C 7.039062 0.03125 6.359375 0.140625 5.578125 0.140625 Z M 5.578125 0.140625 "/></g></g></g></svg>